<?xml version="1.0" standalone="no"?>
<!DOCTYPE svg PUBLIC "-//W3C//DTD SVG 20010904//EN"
 "http://www.w3.org/TR/2001/REC-SVG-20010904/DTD/svg10.dtd">
<svg version="1.0" xmlns="http://www.w3.org/2000/svg"
 width="248.000000pt" height="248.000000pt" viewBox="0 0 248.000000 248.000000"
 preserveAspectRatio="xMidYMid meet">
<metadata>
Created by potrace 1.11, written by Peter Selinger 2001-2013
</metadata>
<g transform="translate(0.000000,248.000000) scale(0.100000,-0.100000)"
fill="#000000" stroke="none">
<path d="M747 1881 c-269 -198 -489 -363 -489 -368 -1 -6 955 -281 985 -283 4
0 7 227 7 505 0 278 -3 505 -7 505 -5 -1 -228 -162 -496 -359z"/>
<path d="M1260 1735 c0 -478 1 -507 18 -503 219 59 969 272 974 277 6 5 -957
720 -983 729 -5 2 -9 -209 -9 -503z"/>
<path d="M368 1100 c-1 -187 -2 -363 -3 -392 l0 -52 70 -27 c39 -15 76 -28 83
-28 9 -1 12 65 12 295 0 244 2 295 13 291 8 -3 51 -15 95 -27 l82 -22 0 -308
0 -308 65 -26 c36 -14 70 -26 75 -26 6 0 11 118 12 313 l3 314 95 -27 95 -27
3 -329 2 -330 88 -32 c48 -18 91 -32 97 -32 5 0 207 75 447 167 l438 166 0
394 0 393 -28 -6 c-15 -4 -45 -12 -67 -18 l-40 -12 -5 -279 -5 -278 -85 -29
c-46 -15 -90 -28 -97 -28 -10 0 -13 57 -13 279 l0 279 -77 -23 -78 -22 -3
-251 c-2 -194 -5 -250 -15 -247 -6 2 -51 15 -99 30 l-88 26 0 189 c0 149 -3
190 -13 190 -7 0 -50 -11 -95 -24 -45 -13 -83 -22 -84 -21 -3 4 -865 245 -873
245 -3 0 -6 -153 -7 -340z"/>
</g>
</svg>
