<?xml version="1.0" standalone="no"?>
<!DOCTYPE svg PUBLIC "-//W3C//DTD SVG 20010904//EN"
 "http://www.w3.org/TR/2001/REC-SVG-20010904/DTD/svg10.dtd">
<svg version="1.0" xmlns="http://www.w3.org/2000/svg"
 width="300.000000pt" height="300.000000pt" viewBox="0 0 300.000000 300.000000"
 preserveAspectRatio="xMidYMid meet">
<metadata>
Created by potrace 1.14, written by Peter Selinger 2001-2017
</metadata>
<g transform="translate(0.000000,300.000000) scale(0.100000,-0.100000)"
fill="#000000" stroke="none">
<path d="M1448 2985 c-15 -8 -87 -57 -160 -108 -73 -51 -171 -118 -218 -150
-47 -32 -148 -102 -225 -155 -78 -53 -284 -196 -459 -317 -257 -177 -321 -225
-332 -252 -18 -42 -18 -67 2 -108 21 -45 58 -68 110 -69 48 0 23 -16 479 299
50 34 162 111 250 172 88 61 261 180 385 266 190 131 228 153 242 144 95 -66
640 -442 893 -616 176 -121 325 -224 331 -229 35 -31 78 -41 139 -33 34 4 85
79 85 125 0 61 -34 90 -340 296 -8 6 -49 34 -90 63 -41 29 -130 91 -198 137
-68 47 -196 135 -285 197 -89 61 -200 138 -247 170 -47 31 -122 84 -168 116
-91 65 -145 79 -194 52z"/>
<path d="M367 1765 c-39 -13 -58 -29 -76 -64 -10 -17 -13 -204 -13 -816 1
-704 2 -797 16 -824 32 -61 34 -61 479 -61 l404 0 32 30 c17 17 32 31 33 33 1
1 5 157 8 347 l5 345 250 0 250 0 6 -38 c3 -21 2 -40 -3 -43 -4 -3 -6 -10 -2
-15 3 -6 6 -135 5 -286 0 -304 4 -329 58 -357 44 -23 807 -24 851 -1 62 32 60
-4 60 870 0 802 -1 817 -34 851 -65 65 -191 34 -212 -52 -4 -16 -7 -345 -7
-731 l0 -703 -231 0 -231 0 0 332 c-1 309 -2 335 -20 365 -39 65 -34 65 -506
61 l-425 -3 -27 -29 c-15 -16 -30 -43 -35 -60 -4 -17 -8 -174 -7 -348 l0 -318
-231 0 -231 0 0 714 c0 709 0 714 -21 748 -33 54 -87 73 -145 53z"/>
</g>
</svg>
